#!OML:ASF F:\VICON\USERDATA\INSTALL\rory3\rory3.ASF
:FULLY-SPECIFIED
:DEGREES
2080
root 0.374224 19.2234 -1.29489 0.308482 -10.5907 -0.29638
lowerback 11.704 1.40239 0.357857
upperback 0.774514 1.81245 -1.51499
thorax -5.69188 0.860636 -2.0879
lowerneck -11.9108 -6.4153 -8.98511
upperneck 4.45611 -8.35598 13.6055
head 4.26112 -3.64264 5.0335
rclavicle 1.41137e-014 -2.38542e-015
rhumerus -22.007 23.9839 -87.3172
rradius 120.537
rwrist -8.09921
rhand -36.6597 8.58878
rfingers 7.12502
rthumb -9.74633 -21.1657
lclavicle 1.41137e-014 -2.38542e-015
lhumerus -56.7843 -1.64245 92.456
lradius 103.002
lwrist 15.8845
lhand -32.1528 11.345
lfingers 7.12502
lthumb -5.39627 41.2562
rfemur -12.4704 16.732 21.3725
rtibia 34.4824
rfoot -5.11075 0.567273
rtoes -11.1195
lfemur -24.9606 13.4666 -12.728
ltibia 70.343
lfoot 0.509354 2.2139
ltoes -11.6113
2081
root 0.399806 19.3159 -1.2888 0.755722 -10.7857 -0.382142
lowerback 11.3592 1.39384 0.404004
upperback 0.63982 1.80626 -1.54853
thorax -5.63875 0.856323 -2.13981
lowerneck -11.936 -6.47136 -9.09397
upperneck 4.46757 -8.42311 13.6887
head 4.28539 -3.67261 5.07053
rclavicle 1.72446e-014 -1.19271e-014
rhumerus -22.3444 24.2481 -87.575
rradius 121.089
rwrist -8.40541
rhand -36.8203 8.81411
rfingers 7.12502
rthumb -9.90126 -20.9331
lclavicle 1.72446e-014 -1.19271e-014
lhumerus -56.578 -1.62047 92.7134
lradius 103.036
lwrist 15.0427
lhand -32.1294 10.7722
lfingers 7.12502
lthumb -5.37364 40.684
rfemur -12.974 16.8243 20.9734
rtibia 34.018
rfoot -3.46164 0.746647
rtoes -10.8927
lfemur -24.6788 12.6663 -13.1887
ltibia 68.1544
lfoot 0.22908 2.82352
ltoes -11.8451
2082
root 0.426788 19.3947 -1.27762 1.15038 -11.073 -0.472334
lowerback 10.9342 1.38643 0.470749
upperback 0.615392 1.80449 -1.58919
thorax -5.42332 0.855823 -2.20614
lowerneck -12.0784 -6.51381 -9.10334
upperneck 4.35796 -8.45283 13.6307
head 4.27647 -3.6874 5.04804
rclavicle 2.18166e-014 -4.77083e-015
rhumerus -22.575 24.5479 -87.8258
rradius 121.562
rwrist -8.56693
rhand -36.7107 8.85903
rfingers 7.12502
rthumb -9.79557 -20.8931
lclavicle 2.18166e-014 -4.77083e-015
lhumerus -56.134 -1.65632 92.9003
lradius 103.124
lwrist 14.1937
lhand -32.1925 10.6396
lfingers 7.12502
lthumb -5.43464 40.5499
rfemur -13.4893 16.9555 20.5719
rtibia 33.7241
rfoot -2.05283 0.760037
rtoes -11.7607
lfemur -24.3116 11.895 -13.6288
ltibia 65.9268
lfoot 0.0407286 3.41731
ltoes -11.726
2083
root 0.454103 19.4747 -1.26417 1.42906 -11.3689 -0.409129
lowerback 10.5718 1.41316 0.40557
upperback 0.632102 1.82936 -1.67317
thorax -5.20129 0.871327 -2.24845
lowerneck -12.3372 -6.56432 -9.09222
upperneck 4.37172 -8.49286 13.4893
head 4.31963 -3.70376 4.9917
rclavicle -1.62506e-014 -5.1684e-015
rhumerus -22.9344 24.718 -88.0684
rradius 121.963
rwrist -8.62963
rhand -36.4789 9.873
rfingers 7.12502
rthumb -9.57186 -19.8896
lclavicle -1.62506e-014 -5.1684e-015
lhumerus -55.5857 -1.83521 93.115
lradius 103.224
lwrist 13.4044
lhand -32.1172 10.3629
lfingers 7.12502
lthumb -5.36189 40.275
rfemur -13.9698 17.1266 20.0193
rtibia 33.6103
rfoot -0.976443 0.610126
rtoes -12.1279
lfemur -23.7637 11.0098 -14.1946
ltibia 63.6048
lfoot -0.184008 4.07374
ltoes -11.0062
2084
root 0.479946 19.5404 -1.25416 1.60988 -11.7394 -0.275793
lowerback 10.2852 1.46138 0.215846
upperback 0.67295 1.86939 -1.74703
thorax -5.00013 0.896862 -2.21376
lowerneck -12.6137 -6.56244 -9.25513
upperneck 4.47321 -8.45793 13.5242
head 4.40041 -3.67549 5.0264
rclavicle -5.35725e-014 2.82274e-014
rhumerus -23.2637 24.9445 -88.2688
rradius 122.204
rwrist -8.58656
rhand -36.4079 11.0143
rfingers 7.12502
rthumb -9.50342 -18.7514
lclavicle -5.35725e-014 2.82274e-014
lhumerus -54.9974 -2.08635 93.3279
lradius 103.335
lwrist 12.7164
lhand -31.7955 10.2293
lfingers 7.12502
lthumb -5.05131 40.1491
rfemur -14.533 17.3821 19.4179
rtibia 33.8227
rfoot -0.152095 0.329282
rtoes -12.6298
lfemur -23.1112 10.1915 -14.7822
ltibia 61.3041
lfoot -0.377569 4.65591
ltoes -10.9883
2085
root 0.503486 19.5909 -1.2533 1.73479 -12.1545 -0.0523215
lowerback 10.1215 1.5116 -0.133199
upperback 0.702135 1.89331 -1.83178
thorax -4.88566 0.916396 -2.10272
lowerneck -12.8136 -6.52199 -9.42318
upperneck 4.51439 -8.37256 13.6013
head 4.44688 -3.62475 5.0826
rclavicle 1.55052e-014 -7.55382e-015
rhumerus -23.7113 25.2096 -88.5614
rradius 122.373
rwrist -8.32029
rhand -36.3023 10.9447
rfingers 7.12502
rthumb -9.40151 -18.8256
lclavicle 1.55052e-014 -7.55382e-015
lhumerus -54.3346 -2.50845 93.4931
lradius 103.416
lwrist 12.2079
lhand -31.5708 10.3567
lfingers 7.12502
lthumb -4.83435 40.2815
rfemur -15.2805 17.5776 18.7482
rtibia 34.4388
rfoot 0.39146 -0.103656
rtoes -13.7517
lfemur -22.4852 9.45905 -15.4271
ltibia 59.062
lfoot -0.388726 5.1615
ltoes -11.2834
2086
root 0.525519 19.6268 -1.26086 1.91208 -12.5294 0.206386
lowerback 9.97925 1.51866 -0.508132
upperback 0.70372 1.85648 -1.94132
thorax -4.81414 0.905435 -1.99597
lowerneck -13.098 -6.46562 -9.46897
upperneck 4.61869 -8.26863 13.5117
head 4.51003 -3.5666 5.06596
rclavicle 6.85807e-015 -3.97569e-016
rhumerus -24.1706 25.4494 -88.9034
rradius 122.461
rwrist -7.9522
rhand -36.1197 10.4242
rfingers 7.12502
rthumb -9.22532 -19.3539
lclavicle 6.85807e-015 -3.97569e-016
lhumerus -53.6286 -3.03639 93.5839
lradius 103.602
lwrist 12.0011
lhand -31.7342 10.9105
lfingers 7.12502
lthumb -4.99207 40.8317
rfemur -16.3372 17.5227 18.0562
rtibia 35.5372
rfoot 0.672236 -0.537085
rtoes -14.6235
lfemur -22.0098 8.84958 -16.0786
ltibia 56.9257
lfoot -0.132345 5.59647
ltoes -11.6096
2087
root 0.549007 19.6493 -1.26905 2.12735 -12.8768 0.471806
lowerback 9.67252 1.50072 -0.846039
upperback 0.757011 1.79667 -2.05073
thorax -4.59573 0.882973 -1.90015
lowerneck -13.3777 -6.38382 -9.43063
upperneck 4.66649 -8.12561 13.2933
head 4.54051 -3.49592 4.99904
rclavicle 3.40916e-014 -4.77083e-015
rhumerus -24.4739 25.6918 -89.1949
rradius 122.402
rwrist -7.59597
rhand -36.2007 10.5371
rfingers 7.12502
rthumb -9.30347 -19.2376
lclavicle 3.40916e-014 -4.77083e-015
lhumerus -52.8676 -3.4628 93.5954
lradius 103.972
lwrist 11.9171
lhand -32.0691 11.9588
lfingers 7.12502
lthumb -5.31546 41.8721
rfemur -17.5583 17.2308 17.3706
rtibia 37.0631
rfoot 0.72221 -0.766032
rtoes -14.4578
lfemur -21.5723 8.30494 -16.7201
ltibia 54.8703
lfoot 0.147927 6.00738
ltoes -12.0739
2088
root 0.573053 19.6571 -1.27696 2.30491 -13.2602 0.681834
lowerback 9.43394 1.49494 -1.14226
upperback 0.76131 1.75904 -2.13058
thorax -4.4654 0.869832 -1.80381
lowerneck -13.3923 -6.25199 -9.49136
upperneck 4.59693 -7.91491 13.163
head 4.49288 -3.40169 4.98894
rclavicle -1.33186e-014 2.06736e-014
rhumerus -24.9566 25.9676 -89.583
rradius 122.205
rwrist -7.27803
rhand -36.42 10.5765
rfingers 7.12502
rthumb -9.51501 -19.1887
lclavicle -1.33186e-014 2.06736e-014
lhumerus -52.2131 -3.79216 93.5466
lradius 104.41
lwrist 11.7598
lhand -32.2214 12.2352
lfingers 7.12502
lthumb -5.4625 42.1448
rfemur -18.8116 16.9343 16.7687
rtibia 38.9424
rfoot 0.358401 -0.999752
rtoes -12.7978
lfemur -21.1025 7.79088 -17.2731
ltibia 52.8741
lfoot 0.337924 6.32887
ltoes -12.6617
